<svg version="1" xmlns="http://www.w3.org/2000/svg" width="690.667" height="690.667" viewBox="0 0 518.000000 518.000000"><path d="M139 73v35l29.2.2 29.1.3 11.3 27.9 11.3 27.9-91.6 153.6c-50.4 84.5-91.8 153.9-92 154.4-.2.4 20.9.7 46.9.6h47.3l39.5-61.7c73.2-114.5 89.2-139.3 89.7-138.9.2.3 19.3 49.7 42.3 109.9 23 60.1 42.2 109.2 42.7 109.2 2.5-.4 135.9-40.7 136.6-41.3.6-.6-20.7-69.4-22-71-.2-.3-14.5 4.2-31.9 9.8-17.4 5.7-31.7 10.1-31.8 9.9-.2-.1-31.6-81.3-69.7-180.3l-69.5-180-58.7-.3L139 38v35z"/></svg>